<svg width="16" height="16" viewBox="0 0 16 16" fill="none" xmlns="http://www.w3.org/2000/svg">
<path d="M3.55556 8H5.33333V9.6H3.55556V8ZM16 3.2V14.4C16 14.8243 15.8127 15.2313 15.4793 15.5314C15.1459 15.8314 14.6937 16 14.2222 16H1.77778C1.30628 16 0.854097 15.8314 0.520699 15.5314C0.187301 15.2313 0 14.8243 0 14.4V3.2C0 2.77565 0.187301 2.36869 0.520699 2.06863C0.854097 1.76857 1.30628 1.6 1.77778 1.6H2.66667V0H4.44444V1.6H11.5556V0H13.3333V1.6H14.2222C14.6937 1.6 15.1459 1.76857 15.4793 2.06863C15.8127 2.36869 16 2.77565 16 3.2ZM1.77778 4.8H14.2222V3.2H1.77778V4.8ZM14.2222 14.4V6.4H1.77778V14.4H14.2222ZM10.6667 9.6V8H12.4444V9.6H10.6667ZM7.11111 9.6V8H8.88889V9.6H7.11111ZM3.55556 11.2H5.33333V12.8H3.55556V11.2ZM10.6667 12.8V11.2H12.4444V12.8H10.6667ZM7.11111 12.8V11.2H8.88889V12.8H7.11111Z" fill="#717171"/>
</svg>
