<svg width="19" height="16" viewBox="0 0 19 16" fill="none" xmlns="http://www.w3.org/2000/svg">
<path d="M18.7361 8.70598L12.4028 15.7042C11.8373 16.329 10.8571 15.8916 10.8571 14.996V10.997H5.73016C5.22877 10.997 4.8254 10.5513 4.8254 9.99731V5.99835C4.8254 5.44432 5.22877 4.99861 5.73016 4.99861H10.8571V0.999649C10.8571 0.108215 11.8335 -0.333337 12.4028 0.2915L18.7361 7.28968C19.0867 7.68124 19.0867 8.31441 18.7361 8.70598ZM7.2381 15.4959V13.8296C7.2381 13.5547 7.03452 13.3298 6.78571 13.3298H3.61905C2.95179 13.3298 2.4127 12.7341 2.4127 11.9968V3.99887C2.4127 3.26156 2.95179 2.66588 3.61905 2.66588H6.78571C7.03452 2.66588 7.2381 2.44094 7.2381 2.16601V0.499779C7.2381 0.224851 7.03452 -9.06024e-05 6.78571 -9.06024e-05H3.61905C1.62103 -9.06024e-05 0 1.79111 0 3.99887V11.9968C0 14.2045 1.62103 15.9957 3.61905 15.9957H6.78571C7.03452 15.9957 7.2381 15.7708 7.2381 15.4959Z" fill="#FF527B"/>
</svg>
